# xmcd CD database file
#
# Track frame offsets:
#	150
#	11055
#	25202
#	38962
#	52345
#	67665
#	79925
#	94645
#	108047
#	119585
#	131990
#	146435
#	160180
#	173935
#	186697
#	198065
#
# Disc length: 2844 seconds
#
# Revision: 1
# Processed by: cddbd v1.5.2PL0 Copyright (c) Steve Scherf et al.
# Submitted via: CDex 1.51
#
DISCID=e00b1a10
DTITLE=Various Artist - Erotic Blues - Afro-American erotic songs
DYEAR=1900
DGENRE=Blues
TTITLE0=Dirty Red - Mother fuyer
TTITLE1=Sam Collins - Slow mama slow
TTITLE2=Washboard Sam - Let me play your vendor
TTITLE3=Bo Carter - Ram rod daddy
TTITLE4=Lucille Bogan - Coffe grindin' blues
TTITLE5=Lonnie Johnson - Jelly roll bake
TTITLE6=Tampa Red and his Hokum Jug Band - She can love so good
TTITLE7=Blind Blake - Diddie wa diddie
TTITLE8=Peetie Wheatstraw - Peetie Wheatstraw stomp
TTITLE9=Mississippi John Hurt - Candy man blues
TTITLE10=Sonny Boy Williamson - Suzie Q
TTITLE11=Ruby Glaze - Rollin'mama blues
TTITLE12=Blind Boy Fuller - I'm a rattleshakin' daddy
TTITLE13=Big Bill Broonzy - Night watchman blues
TTITLE14=Blind Lemon Jefferson - Oil well blues
TTITLE15=Walter Davis - Think you need a shot
EXTD=
EXTT0=
EXTT1=
EXTT2=
EXTT3=
EXTT4=
EXTT5=
EXTT6=
EXTT7=
EXTT8=
EXTT9=
EXTT10=
EXTT11=
EXTT12=
EXTT13=
EXTT14=
EXTT15=
PLAYORDER=
